<svg width="136" height="26" viewBox="0 0 136 26" fill="none" xmlns="http://www.w3.org/2000/svg">
<path d="M12.2853 13H10.7001C10.6064 12.544 10.4423 12.1435 10.2079 11.7983C9.97781 11.4531 9.69656 11.1634 9.36417 10.929C9.03604 10.6903 8.6717 10.5114 8.27113 10.392C7.87056 10.2727 7.45295 10.2131 7.01829 10.2131C6.22567 10.2131 5.50764 10.4134 4.86417 10.8139C4.22496 11.2145 3.71573 11.8047 3.33647 12.5845C2.96147 13.3643 2.77397 14.321 2.77397 15.4545C2.77397 16.5881 2.96147 17.5447 3.33647 18.3246C3.71573 19.1044 4.22496 19.6946 4.86417 20.0952C5.50764 20.4957 6.22567 20.696 7.01829 20.696C7.45295 20.696 7.87056 20.6364 8.27113 20.517C8.6717 20.3977 9.03604 20.2209 9.36417 19.9865C9.69656 19.7479 9.97781 19.456 10.2079 19.1108C10.4423 18.7614 10.6064 18.3608 10.7001 17.9091H12.2853C12.166 18.5781 11.9487 19.1768 11.6333 19.7053C11.318 20.2337 10.926 20.6832 10.4572 21.054C9.98846 21.4205 9.46218 21.6996 8.87837 21.8913C8.29883 22.0831 7.6788 22.179 7.01829 22.179C5.90181 22.179 4.90891 21.9062 4.0396 21.3608C3.17028 20.8153 2.48633 20.0398 1.98775 19.0341C1.48917 18.0284 1.23988 16.8352 1.23988 15.4545C1.23988 14.0739 1.48917 12.8807 1.98775 11.875C2.48633 10.8693 3.17028 10.0938 4.0396 9.5483C4.90891 9.00284 5.90181 8.73011 7.01829 8.73011C7.6788 8.73011 8.29883 8.82599 8.87837 9.01776C9.46218 9.20952 9.98846 9.49077 10.4572 9.86151C10.926 10.228 11.318 10.6754 11.6333 11.2038C11.9487 11.728 12.166 12.3267 12.2853 13ZM18.631 22.2045C17.7447 22.2045 16.967 21.9936 16.2979 21.5717C15.6332 21.1499 15.1133 20.5597 14.7383 19.8011C14.3675 19.0426 14.1822 18.1562 14.1822 17.142C14.1822 16.1193 14.3675 15.2266 14.7383 14.4638C15.1133 13.701 15.6332 13.1087 16.2979 12.6868C16.967 12.2649 17.7447 12.054 18.631 12.054C19.5174 12.054 20.293 12.2649 20.9577 12.6868C21.6268 13.1087 22.1467 13.701 22.5174 14.4638C22.8924 15.2266 23.0799 16.1193 23.0799 17.142C23.0799 18.1562 22.8924 19.0426 22.5174 19.8011C22.1467 20.5597 21.6268 21.1499 20.9577 21.5717C20.293 21.9936 19.5174 22.2045 18.631 22.2045ZM18.631 20.8494C19.3043 20.8494 19.8583 20.6768 20.293 20.3317C20.7276 19.9865 21.0494 19.5327 21.2582 18.9702C21.467 18.4077 21.5714 17.7983 21.5714 17.142C21.5714 16.4858 21.467 15.8743 21.2582 15.3075C21.0494 14.7408 20.7276 14.2827 20.293 13.9332C19.8583 13.5838 19.3043 13.4091 18.631 13.4091C17.9577 13.4091 17.4038 13.5838 16.9691 13.9332C16.5344 14.2827 16.2127 14.7408 16.0039 15.3075C15.7951 15.8743 15.6907 16.4858 15.6907 17.142C15.6907 17.7983 15.7951 18.4077 16.0039 18.9702C16.2127 19.5327 16.5344 19.9865 16.9691 20.3317C17.4038 20.6768 17.9577 20.8494 18.631 20.8494ZM25.3826 22V12.1818H26.84V13.7159H26.9679C27.1724 13.1918 27.5027 12.7848 27.9586 12.495C28.4146 12.201 28.9622 12.054 29.6014 12.054C30.2491 12.054 30.7882 12.201 31.2186 12.495C31.6532 12.7848 31.992 13.1918 32.2349 13.7159H32.3372C32.5886 13.2088 32.9657 12.8061 33.4686 12.5078C33.9714 12.2053 34.5744 12.054 35.2775 12.054C36.1554 12.054 36.8734 12.3288 37.4316 12.8786C37.9899 13.424 38.269 14.2741 38.269 15.429V22H36.7605V15.429C36.7605 14.7045 36.5623 14.1868 36.166 13.8757C35.7697 13.5646 35.3031 13.4091 34.7662 13.4091C34.0758 13.4091 33.541 13.6179 33.1618 14.0355C32.7825 14.4489 32.5929 14.973 32.5929 15.608V22H31.0588V15.2756C31.0588 14.7173 30.8777 14.2678 30.5154 13.9268C30.1532 13.5817 29.6866 13.4091 29.1156 13.4091C28.7235 13.4091 28.3571 13.5135 28.0162 13.7223C27.6795 13.9311 27.4068 14.2209 27.198 14.5916C26.9934 14.9581 26.8912 15.3821 26.8912 15.8636V22H25.3826ZM41.0272 25.6818V12.1818H42.4846V13.7415H42.6635C42.7743 13.571 42.9277 13.3537 43.1238 13.0895C43.324 12.821 43.6096 12.5824 43.9803 12.3736C44.3553 12.1605 44.8624 12.054 45.5016 12.054C46.3283 12.054 47.057 12.2607 47.6877 12.674C48.3184 13.0874 48.8105 13.6733 49.1642 14.4318C49.5179 15.1903 49.6948 16.0852 49.6948 17.1165C49.6948 18.1562 49.5179 19.0575 49.1642 19.8203C48.8105 20.5788 48.3205 21.1669 47.6941 21.5845C47.0676 21.9979 46.3453 22.2045 45.5272 22.2045C44.8965 22.2045 44.3915 22.1001 44.0123 21.8913C43.633 21.6783 43.3411 21.4375 43.1365 21.169C42.932 20.8963 42.7743 20.6705 42.6635 20.4915H42.5357V25.6818H41.0272ZM42.5101 17.0909C42.5101 17.8324 42.6188 18.4865 42.8361 19.0533C43.0534 19.6158 43.3709 20.0568 43.7885 20.3764C44.2061 20.6918 44.7175 20.8494 45.3226 20.8494C45.9533 20.8494 46.4796 20.6832 46.9015 20.3509C47.3276 20.0142 47.6472 19.5625 47.8603 18.9957C48.0776 18.4247 48.1863 17.7898 48.1863 17.0909C48.1863 16.4006 48.0797 15.7784 47.8667 15.2244C47.6578 14.6662 47.3404 14.2251 46.9142 13.9013C46.4924 13.5732 45.9618 13.4091 45.3226 13.4091C44.709 13.4091 44.1934 13.5646 43.7757 13.8757C43.3581 14.1825 43.0428 14.6129 42.8297 15.1669C42.6167 15.7166 42.5101 16.358 42.5101 17.0909ZM54.8851 22.2301C54.263 22.2301 53.6983 22.1129 53.1912 21.8786C52.6841 21.6399 52.2814 21.2969 51.9831 20.8494C51.6848 20.3977 51.5357 19.8523 51.5357 19.2131C51.5357 18.6506 51.6465 18.1946 51.8681 17.8452C52.0897 17.4915 52.3858 17.2145 52.7566 17.0142C53.1273 16.8139 53.5364 16.6648 53.9838 16.5668C54.4355 16.4645 54.8894 16.3835 55.3453 16.3239C55.9419 16.2472 56.4256 16.1896 56.7963 16.1513C57.1713 16.1087 57.4441 16.0384 57.6145 15.9403C57.7892 15.8423 57.8766 15.6719 57.8766 15.429V15.3778C57.8766 14.7472 57.704 14.2571 57.3588 13.9077C57.0179 13.5582 56.5002 13.3835 55.8056 13.3835C55.0854 13.3835 54.5208 13.5412 54.1117 13.8565C53.7026 14.1719 53.415 14.5085 53.2488 14.8665L51.8169 14.3551C52.0726 13.7585 52.4135 13.294 52.8397 12.9616C53.2701 12.625 53.7388 12.3906 54.2459 12.2585C54.7573 12.1222 55.2601 12.054 55.7544 12.054C56.0698 12.054 56.432 12.0923 56.8411 12.169C57.2544 12.2415 57.6529 12.3928 58.0364 12.6229C58.4242 12.853 58.7459 13.2003 59.0016 13.6648C59.2573 14.1293 59.3851 14.7514 59.3851 15.5312V22H57.8766V20.6705H57.7999C57.6976 20.8835 57.5272 21.1115 57.2885 21.3544C57.0499 21.5973 56.7324 21.804 56.3361 21.9744C55.9398 22.1449 55.4561 22.2301 54.8851 22.2301ZM55.1152 20.875C55.7118 20.875 56.2147 20.7578 56.6238 20.5234C57.0371 20.2891 57.3482 19.9865 57.557 19.6158C57.7701 19.245 57.8766 18.8551 57.8766 18.446V17.0653C57.8127 17.142 57.6721 17.2124 57.4547 17.2763C57.2417 17.3359 56.9945 17.3892 56.7132 17.4361C56.4363 17.4787 56.1657 17.517 55.9015 17.5511C55.6415 17.581 55.4306 17.6065 55.2686 17.6278C54.8766 17.679 54.5101 17.7621 54.1692 17.8771C53.8326 17.9879 53.5598 18.1562 53.351 18.3821C53.1465 18.6037 53.0442 18.9062 53.0442 19.2898C53.0442 19.8139 53.2381 20.2102 53.6259 20.4787C54.0179 20.7429 54.5144 20.875 55.1152 20.875ZM63.647 16.0938V22H62.1385V12.1818H63.5959V13.7159H63.7237C63.9538 13.2173 64.3033 12.8168 64.772 12.5142C65.2408 12.2074 65.8459 12.054 66.5874 12.054C67.2521 12.054 67.8338 12.1903 68.3324 12.4631C68.831 12.7315 69.2188 13.1406 69.4957 13.6903C69.7727 14.2358 69.9112 14.9261 69.9112 15.7614V22H68.4027V15.8636C68.4027 15.0923 68.2024 14.4915 67.8018 14.0611C67.4013 13.6264 66.8516 13.4091 66.1527 13.4091C65.6712 13.4091 65.2408 13.5135 64.8615 13.7223C64.4865 13.9311 64.1903 14.2358 63.973 14.6364C63.7557 15.0369 63.647 15.5227 63.647 16.0938ZM73.2878 25.6818C73.0321 25.6818 72.8042 25.6605 72.6039 25.6179C72.4036 25.5795 72.2651 25.5412 72.1884 25.5028L72.5719 24.1733C72.9384 24.267 73.2623 24.3011 73.5435 24.2756C73.8248 24.25 74.074 24.1243 74.2914 23.8984C74.513 23.6768 74.7154 23.3168 74.8986 22.8182L75.1799 22.0511L71.5492 12.1818H73.1855L75.8958 20.0057H75.998L78.7083 12.1818H80.3446L76.177 23.4318C75.9895 23.9389 75.7573 24.3587 75.4803 24.6911C75.2033 25.0277 74.8816 25.277 74.5151 25.4389C74.1529 25.6009 73.7438 25.6818 73.2878 25.6818ZM97.9835 8.90909V22H96.4494L89.3159 11.7216H89.188V22H87.6028V8.90909H89.1369L96.296 19.2131H96.4238V8.90909H97.9835ZM103.84 22.2301C103.218 22.2301 102.653 22.1129 102.146 21.8786C101.639 21.6399 101.237 21.2969 100.938 20.8494C100.64 20.3977 100.491 19.8523 100.491 19.2131C100.491 18.6506 100.602 18.1946 100.823 17.8452C101.045 17.4915 101.341 17.2145 101.712 17.0142C102.082 16.8139 102.491 16.6648 102.939 16.5668C103.391 16.4645 103.844 16.3835 104.3 16.3239C104.897 16.2472 105.381 16.1896 105.751 16.1513C106.126 16.1087 106.399 16.0384 106.57 15.9403C106.744 15.8423 106.832 15.6719 106.832 15.429V15.3778C106.832 14.7472 106.659 14.2571 106.314 13.9077C105.973 13.5582 105.455 13.3835 104.761 13.3835C104.04 13.3835 103.476 13.5412 103.067 13.8565C102.658 14.1719 102.37 14.5085 102.204 14.8665L100.772 14.3551C101.028 13.7585 101.369 13.294 101.795 12.9616C102.225 12.625 102.694 12.3906 103.201 12.2585C103.712 12.1222 104.215 12.054 104.71 12.054C105.025 12.054 105.387 12.0923 105.796 12.169C106.21 12.2415 106.608 12.3928 106.991 12.6229C107.379 12.853 107.701 13.2003 107.957 13.6648C108.212 14.1293 108.34 14.7514 108.34 15.5312V22H106.832V20.6705H106.755C106.653 20.8835 106.482 21.1115 106.244 21.3544C106.005 21.5973 105.688 21.804 105.291 21.9744C104.895 22.1449 104.411 22.2301 103.84 22.2301ZM104.07 20.875C104.667 20.875 105.17 20.7578 105.579 20.5234C105.992 20.2891 106.303 19.9865 106.512 19.6158C106.725 19.245 106.832 18.8551 106.832 18.446V17.0653C106.768 17.142 106.627 17.2124 106.41 17.2763C106.197 17.3359 105.95 17.3892 105.668 17.4361C105.391 17.4787 105.121 17.517 104.857 17.5511C104.597 17.581 104.386 17.6065 104.224 17.6278C103.832 17.679 103.465 17.7621 103.124 17.8771C102.788 17.9879 102.515 18.1562 102.306 18.3821C102.102 18.6037 101.999 18.9062 101.999 19.2898C101.999 19.8139 102.193 20.2102 102.581 20.4787C102.973 20.7429 103.469 20.875 104.07 20.875ZM111.094 22V12.1818H112.551V13.7159H112.679C112.883 13.1918 113.214 12.7848 113.67 12.495C114.126 12.201 114.673 12.054 115.312 12.054C115.96 12.054 116.499 12.201 116.93 12.495C117.364 12.7848 117.703 13.1918 117.946 13.7159H118.048C118.3 13.2088 118.677 12.8061 119.18 12.5078C119.682 12.2053 120.285 12.054 120.988 12.054C121.866 12.054 122.584 12.3288 123.143 12.8786C123.701 13.424 123.98 14.2741 123.98 15.429V22H122.471V15.429C122.471 14.7045 122.273 14.1868 121.877 13.8757C121.481 13.5646 121.014 13.4091 120.477 13.4091C119.787 13.4091 119.252 13.6179 118.873 14.0355C118.493 14.4489 118.304 14.973 118.304 15.608V22H116.77V15.2756C116.77 14.7173 116.589 14.2678 116.226 13.9268C115.864 13.5817 115.398 13.4091 114.827 13.4091C114.434 13.4091 114.068 13.5135 113.727 13.7223C113.39 13.9311 113.118 14.2209 112.909 14.5916C112.704 14.9581 112.602 15.3821 112.602 15.8636V22H111.094ZM130.855 22.2045C129.909 22.2045 129.093 21.9957 128.406 21.5781C127.725 21.1562 127.198 20.5682 126.828 19.8139C126.461 19.0554 126.278 18.1733 126.278 17.1676C126.278 16.1619 126.461 15.2756 126.828 14.5085C127.198 13.7372 127.714 13.1364 128.374 12.706C129.039 12.2713 129.815 12.054 130.701 12.054C131.213 12.054 131.718 12.1392 132.216 12.3097C132.715 12.4801 133.169 12.7571 133.578 13.1406C133.987 13.5199 134.313 14.0227 134.556 14.6491C134.798 15.2756 134.92 16.0469 134.92 16.9631V17.6023H127.352V16.2983H133.386C133.386 15.7443 133.275 15.25 133.053 14.8153C132.836 14.3807 132.525 14.0376 132.12 13.7862C131.72 13.5348 131.247 13.4091 130.701 13.4091C130.1 13.4091 129.58 13.5582 129.142 13.8565C128.707 14.1506 128.372 14.5341 128.138 15.0071C127.904 15.4801 127.786 15.9872 127.786 16.5284V17.3977C127.786 18.1392 127.914 18.7678 128.17 19.2834C128.43 19.7947 128.79 20.1847 129.25 20.4531C129.71 20.7173 130.245 20.8494 130.855 20.8494C131.251 20.8494 131.609 20.794 131.928 20.6832C132.252 20.5682 132.531 20.3977 132.766 20.1719C133 19.9418 133.181 19.6562 133.309 19.3153L134.767 19.7244C134.613 20.2188 134.355 20.6534 133.993 21.0284C133.631 21.3991 133.183 21.6889 132.651 21.8977C132.118 22.1023 131.519 22.2045 130.855 22.2045Z" fill="black"/>
</svg>
