<?xml version="1.0" encoding="utf-8"?><svg viewBox="0 0 15 14" xmlns="http://www.w3.org/2000/svg" xmlns:xlink="http://www.w3.org/1999/xlink"><style>:root>svg{display:none}:root>svg:target{display:block}</style><svg viewBox="0 0 15 10" id="arrow-right" xmlns="http://www.w3.org/2000/svg"><path fill-rule="evenodd" clip-rule="evenodd" d="M14.835 4.608a.55.55 0 010 .785l-4.513 4.445a.57.57 0 01-.797 0 .55.55 0 010-.786l3.549-3.497H.564A.56.56 0 010 5a.56.56 0 01.564-.556h12.51L9.524.95a.55.55 0 010-.786.567.567 0 01.798 0l4.513 4.445z"/></svg><svg viewBox="0 0 14 14" id="close-icon" xmlns="http://www.w3.org/2000/svg"><path d="M14 1.41L12.59 0 7 5.59 1.41 0 0 1.41 5.59 7 0 12.59 1.41 14 7 8.41 12.59 14 14 12.59 8.41 7 14 1.41z"/></svg><svg viewBox="0 0 2 4" id="link-arrow" xmlns="http://www.w3.org/2000/svg"><path d="M0 3l1.25-1.25L0 .5.25 0 2 1.75.25 3.5 0 3z"/></svg></svg>